HIERARCHY
ROOT Root
{
  OFFSET 0.0 0.0 0.0
  CHANNELS 6 Xposition Yposition Zposition Zrotation Yrotation Xrotation
  JOINT Hips
  {
    OFFSET 0.0 100.0 0.0
    CHANNELS 6 Xposition Yposition Zposition Zrotation Yrotation Xrotation
    JOINT Spine1
    {
      OFFSET 5.003913 -0.037094 -0.013727
      CHANNELS 3 Zrotation Yrotation Xrotation
      JOINT Spine2
      {
        OFFSET 7.125363 -1e-06 0.0
        CHANNELS 3 Zrotation Yrotation Xrotation
        JOINT Chest
        {
          OFFSET 7.594027 1e-06 0.0
          CHANNELS 3 Zrotation Yrotation Xrotation
          JOINT Neck1
          {
            OFFSET 26.313086 -0.460272 -0.181672
            CHANNELS 3 Zrotation Yrotation Xrotation
            JOINT Neck2
            {
              OFFSET 8.045911 0.0 0.0
              CHANNELS 3 Zrotation Yrotation Xrotation
              JOINT Head
              {
                OFFSET 6.432774 0.0 0.0
                CHANNELS 3 Zrotation Yrotation Xrotation
                JOINT HeadEnd
                {
                  OFFSET 16.169773 0.06451 0.00362
                  CHANNELS 3 Zrotation Yrotation Xrotation
                }
                JOINT Jaw
                {
                  OFFSET 0.108741 3.12938 0.002639
                  CHANNELS 3 Zrotation Yrotation Xrotation
                }
                JOINT LeftEye
                {
                  OFFSET 4.45173 8.166359 3.206392
                  CHANNELS 3 Zrotation Yrotation Xrotation
                }
                JOINT RightEye
                {
                  OFFSET 4.436895 8.135758 -3.222429
                  CHANNELS 3 Zrotation Yrotation Xrotation
                }
              }
            }
          }
          JOINT LeftShoulder
          {
            OFFSET 23.218927 5.195579 1.621656
            CHANNELS 3 Zrotation Yrotation Xrotation
            JOINT LeftArm
            {
              OFFSET 15.902118 2e-06 -2e-06
              CHANNELS 3 Zrotation Yrotation Xrotation
              JOINT LeftForeArm
              {
                OFFSET 28.739307 0.0 -1e-06
                CHANNELS 3 Zrotation Yrotation Xrotation
                JOINT LeftHand
                {
                  OFFSET 27.093981 -4e-06 0.0
                  CHANNELS 3 Zrotation Yrotation Xrotation
                  JOINT LeftHandThumb1
                  {
                    OFFSET 2.276781 3.380274 0.83384
                    CHANNELS 3 Zrotation Yrotation Xrotation
                    JOINT LeftHandThumb2
                    {
                      OFFSET 4.705309 -1e-06 -1e-06
                      CHANNELS 3 Zrotation Yrotation Xrotation
                      JOINT LeftHandThumb3
                      {
                        OFFSET 2.798515 0.0 3e-06
                        CHANNELS 3 Zrotation Yrotation Xrotation
                        JOINT LeftHandThumbEnd
                        {
                          OFFSET 3.180793 4e-06 -4e-06
                          CHANNELS 3 Zrotation Yrotation Xrotation
                        }
                      }
                    }
                  }
                  JOINT LeftHandIndex1
                  {
                    OFFSET 3.247786 2.352677 0.137192
                    CHANNELS 3 Zrotation Yrotation Xrotation
                    JOINT LeftHandIndex2
                    {
                      OFFSET 6.367095 1e-06 0.0
                      CHANNELS 3 Zrotation Yrotation Xrotation
                      JOINT LeftHandIndex3
                      {
                        OFFSET 3.662364 0.0 0.0
                        CHANNELS 3 Zrotation Yrotation Xrotation
                        JOINT LeftHandIndex4
                        {
                          OFFSET 2.329242 4e-06 -4e-06
                          CHANNELS 3 Zrotation Yrotation Xrotation
                          JOINT LeftHandIndexEnd
                          {
                            OFFSET 2.767823 1e-06 0.0
                            CHANNELS 3 Zrotation Yrotation Xrotation
                          }
                        }
                      }
                    }
                  }
                  JOINT LeftHandMiddle1
                  {
                    OFFSET 3.163612 0.945023 -0.406112
                    CHANNELS 3 Zrotation Yrotation Xrotation
                    JOINT LeftHandMiddle2
                    {
                      OFFSET 6.276789 3e-06 0.0
                      CHANNELS 3 Zrotation Yrotation Xrotation
                      JOINT LeftHandMiddle3
                      {
                        OFFSET 4.35652 -1e-06 4e-06
                        CHANNELS 3 Zrotation Yrotation Xrotation
                        JOINT LeftHandMiddle4
                        {
                          OFFSET 2.996877 0.0 8e-06
                          CHANNELS 3 Zrotation Yrotation Xrotation
                          JOINT LeftHandMiddleEnd
                          {
                            OFFSET 2.323256 3e-06 -4e-06
                            CHANNELS 3 Zrotation Yrotation Xrotation
                          }
                        }
                      }
                    }
                  }
                  JOINT LeftHandRing1
                  {
                    OFFSET 2.882606 -0.309162 0.107445
                    CHANNELS 3 Zrotation Yrotation Xrotation
                    JOINT LeftHandRing2
                    {
                      OFFSET 6.033198 0.0 4e-06
                      CHANNELS 3 Zrotation Yrotation Xrotation
                      JOINT LeftHandRing3
                      {
                        OFFSET 4.350578 3e-06 0.0
                        CHANNELS 3 Zrotation Yrotation Xrotation
                        JOINT LeftHandRing4
                        {
                          OFFSET 2.651321 2e-06 -7e-06
                          CHANNELS 3 Zrotation Yrotation Xrotation
                          JOINT LeftHandRingEnd
                          {
                            OFFSET 1.937663 1e-06 -4e-06
                            CHANNELS 3 Zrotation Yrotation Xrotation
                          }
                        }
                      }
                    }
                  }
                  JOINT LeftHandPinky1
                  {
                    OFFSET 2.865315 -1.525436 0.575687
                    CHANNELS 3 Zrotation Yrotation Xrotation
                    JOINT LeftHandPinky2
                    {
                      OFFSET 5.54936 1e-06 -8e-06
                      CHANNELS 3 Zrotation Yrotation Xrotation
                      JOINT LeftHandPinky3
                      {
                        OFFSET 3.070974 0.0 -4e-06
                        CHANNELS 3 Zrotation Yrotation Xrotation
                        JOINT LeftHandPinky4
                        {
                          OFFSET 1.549672 1e-06 0.0
                          CHANNELS 3 Zrotation Yrotation Xrotation
                          JOINT LeftHandPinkyEnd
                          {
                            OFFSET 1.952123 0.0 0.0
                            CHANNELS 3 Zrotation Yrotation Xrotation
                          }
                        }
                      }
                    }
                  }
                }
              }
            }
          }
          JOINT RightShoulder
          {
            OFFSET 23.161716 5.296122 -1.380114
            CHANNELS 3 Zrotation Yrotation Xrotation
            JOINT RightArm
            {
              OFFSET -16.027195 -2e-06 1.1e-05
              CHANNELS 3 Zrotation Yrotation Xrotation
              JOINT RightForeArm
              {
                OFFSET -28.736639 4e-06 2e-06
                CHANNELS 3 Zrotation Yrotation Xrotation
                JOINT RightHand
                {
                  OFFSET -27.133619 6e-06 0.0
                  CHANNELS 3 Zrotation Yrotation Xrotation
                  JOINT RightHandThumb1
                  {
                    OFFSET -2.274328 -3.351035 -0.83067
                    CHANNELS 3 Zrotation Yrotation Xrotation
                    JOINT RightHandThumb2
                    {
                      OFFSET -4.703594 -3e-06 2e-06
                      CHANNELS 3 Zrotation Yrotation Xrotation
                      JOINT RightHandThumb3
                      {
                        OFFSET -2.794935 -4e-06 -3e-06
                        CHANNELS 3 Zrotation Yrotation Xrotation
                        JOINT RightHandThumbEnd
                        {
                          OFFSET -3.183852 4e-06 1e-06
                          CHANNELS 3 Zrotation Yrotation Xrotation
                        }
                      }
                    }
                  }
                  JOINT RightHandIndex1
                  {
                    OFFSET -3.253496 -2.33755 -0.127667
                    CHANNELS 3 Zrotation Yrotation Xrotation
                    JOINT RightHandIndex2
                    {
                      OFFSET -6.344434 0.0 0.0
                      CHANNELS 3 Zrotation Yrotation Xrotation
                      JOINT RightHandIndex3
                      {
                        OFFSET -3.654871 0.0 -8e-06
                        CHANNELS 3 Zrotation Yrotation Xrotation
                        JOINT RightHandIndex4
                        {
                          OFFSET -2.327586 -1e-06 0.0
                          CHANNELS 3 Zrotation Yrotation Xrotation
                          JOINT RightHandIndexEnd
                          {
                            OFFSET -2.770001 3e-06 8e-06
                            CHANNELS 3 Zrotation Yrotation Xrotation
                          }
                        }
                      }
                    }
                  }
                  JOINT RightHandMiddle1
                  {
                    OFFSET -3.168223 -0.944764 0.411762
                    CHANNELS 3 Zrotation Yrotation Xrotation
                    JOINT RightHandMiddle2
                    {
                      OFFSET -6.266691 -1e-06 -4e-06
                      CHANNELS 3 Zrotation Yrotation Xrotation
                      JOINT RightHandMiddle3
                      {
                        OFFSET -4.348901 0.0 0.0
                        CHANNELS 3 Zrotation Yrotation Xrotation
                        JOINT RightHandMiddle4
                        {
                          OFFSET -3.00024 2e-06 -4e-06
                          CHANNELS 3 Zrotation Yrotation Xrotation
                          JOINT RightHandMiddleEnd
                          {
                            OFFSET -2.321477 -4e-06 -4e-06
                            CHANNELS 3 Zrotation Yrotation Xrotation
                          }
                        }
                      }
                    }
                  }
                  JOINT RightHandRing1
                  {
                    OFFSET -2.885654 0.293261 -0.119232
                    CHANNELS 3 Zrotation Yrotation Xrotation
                    JOINT RightHandRing2
                    {
                      OFFSET -6.032835 -1e-06 -4e-06
                      CHANNELS 3 Zrotation Yrotation Xrotation
                      JOINT RightHandRing3
                      {
                        OFFSET -4.33881 0.0 -4e-06
                        CHANNELS 3 Zrotation Yrotation Xrotation
                        JOINT RightHandRing4
                        {
                          OFFSET -2.654903 -4e-06 -4e-06
                          CHANNELS 3 Zrotation Yrotation Xrotation
                          JOINT RightHandRingEnd
                          {
                            OFFSET -1.935122 0.0 4e-06
                            CHANNELS 3 Zrotation Yrotation Xrotation
                          }
                        }
                      }
                    }
                  }
                  JOINT RightHandPinky1
                  {
                    OFFSET -2.866241 1.503904 -0.60527
                    CHANNELS 3 Zrotation Yrotation Xrotation
                    JOINT RightHandPinky2
                    {
                      OFFSET -5.553177 -2e-06 0.0
                      CHANNELS 3 Zrotation Yrotation Xrotation
                      JOINT RightHandPinky3
                      {
                        OFFSET -3.062664 -1e-06 -4e-06
                        CHANNELS 3 Zrotation Yrotation Xrotation
                        JOINT RightHandPinky4
                        {
                          OFFSET -1.546529 2e-06 4e-06
                          CHANNELS 3 Zrotation Yrotation Xrotation
                          JOINT RightHandPinkyEnd
                          {
                            OFFSET -1.952341 0.0 -4e-06
                            CHANNELS 3 Zrotation Yrotation Xrotation
                          }
                        }
                      }
                    }
                  }
                }
              }
            }
          }
        }
      }
    }
    JOINT LeftLeg
    {
      OFFSET -8.443107 2.567604 10.043214
      CHANNELS 3 Zrotation Yrotation Xrotation
      JOINT LeftShin
      {
        OFFSET 43.229198 1e-06 -1e-06
        CHANNELS 3 Zrotation Yrotation Xrotation
        JOINT LeftFoot
        {
          OFFSET 42.298611 1e-06 1e-06
          CHANNELS 3 Zrotation Yrotation Xrotation
          JOINT LeftToeBase
          {
            OFFSET 14.165858 1e-06 0.0
            CHANNELS 3 Zrotation Yrotation Xrotation
            JOINT LeftToeEnd
            {
              OFFSET 6.7141 -0.234461 0.0
              CHANNELS 3 Zrotation Yrotation Xrotation
            }
          }
        }
      }
    }
    JOINT RightLeg
    {
      OFFSET -8.303923 2.592729 -10.047278
      CHANNELS 3 Zrotation Yrotation Xrotation
      JOINT RightShin
      {
        OFFSET -43.369682 0.0 1e-06
        CHANNELS 3 Zrotation Yrotation Xrotation
        JOINT RightFoot
        {
          OFFSET -42.260784 4e-06 2e-06
          CHANNELS 3 Zrotation Yrotation Xrotation
          JOINT RightToeBase
          {
            OFFSET -14.222245 -2e-06 -1e-06
            CHANNELS 3 Zrotation Yrotation Xrotation
            JOINT RightToeEnd
            {
              OFFSET -6.660062 0.232574 -2e-06
              CHANNELS 3 Zrotation Yrotation Xrotation
            }
          }
        }
      }
    }
  }
}
MOTION
Frames: 4
Frame Time: 0.03333333333333333
0.0 0.0 0.0 0.0 -0.0 0.0 -2.702618 44.560131 4.634178 88.17244 -12.22065 90.145256 -5.927974 1.051025 -0.453083 -11.99012 -0.419221 -0.08448 18.824686 2.084563 -2.783001 15.28426 -2.159547 2.393472 -2.310717 -0.437852 -1.422808 -13.716845 -4.148285 -0.828964 6e-06 -0.0 -0.0 -0.243549 0.088277 -0.054012 0.212039 0.247653 0.065832 0.285304 -0.082107 -0.176732 -140.210022 -73.24202 160.885574 42.041336 -49.160347 -17.513924 20.879345 0.566627 0.204329 2.009628 -0.209548 -10.373282 17.636629 -26.322733 52.411198 -19.466665 -14.395598 29.410393 -1e-06 -8.774822 -1e-06 15.967492 -18.363741 6.118842 -0.609777 -1.795654 -3.889329 -4.80709 -11.046813 -2.937851 5e-06 -20.976021 -2e-06 -5.01997 -25.033558 -4.031883 6e-06 -1e-06 0.0 -10.634533 -5.68697 -3.565588 10.573272 -17.922951 -3.113902 3e-06 -13.821208 0.0 -0.501776 -31.181498 -4.027017 -9.396479 -59.676155 6.009126 -13.982714 -7.150199 -2.875041 13.772729 -8.401494 -3.218243 0.347735 -34.211555 0.771652 -0.963028 -17.733376 2.621019 0.0 -0.0 -0.0 -17.346422 -20.095221 -4.201783 21.757561 -1.638374 3.866427 0.0 -6.338824 0.0 -1.69759 -22.591753 -6.194008 -0.0 -2e-06 -2e-06 21.615057 -72.607414 178.574738 46.973286 -47.759716 -22.827236 15.857903 0.080479 -0.081786 2.363095 -6.43987 18.325535 22.182114 -20.375893 49.933319 -16.701805 -16.74353 28.476522 -3e-06 -12.6906 -0.0 16.337269 -17.698368 2.372582 -0.10592 -1.513856 -4.275881 -5.039041 -5.612871 -2.953557 4e-06 -11.020521 -0.0 -6.111298 -15.89533 -3.840469 0.0 1e-06 1e-06 -10.283369 -5.680288 -4.341835 11.028294 -11.302404 -2.372634 -1.384269 -14.238579 -6.320119 -0.62544 -26.924179 -3.8276 -3.532207 -49.960766 -4.328663 -13.708525 -7.363475 -3.720937 18.141146 -14.052735 -3.242673 4e-06 -18.787264 0.0 -0.42971 -8.456039 2.555501 1e-06 -0.0 0.0 -15.923536 -20.094481 -5.473582 30.41921 -7.190823 1.735926 2e-06 -8.162927 -2e-06 -1.861902 -22.861467 -6.167941 0.0 -3e-06 -2e-06 177.171616 -27.169558 -1.168147 110.852859 -3.334788 0.209939 -112.908905 26.00527 -11.723428 -48.625755 2.03683 1.167853 -1.0 -0.0 -0.0 -3.206254 -21.503195 -7.594333 115.430679 -2.046769 0.940519 -117.52887 21.020376 -9.451623 -50.816982 1.484607 1.368303 -1.000002 -0.0 0.0 
0.0 0.0 0.0 0.0 -0.0 0.0 -2.721277 44.620438 4.738451 88.337463 -12.879751 90.041557 -5.754527 1.031772 -0.435947 -11.925095 -0.418039 -0.02269 18.8608 1.912635 -2.836033 15.2814 -2.058377 2.408401 -2.321113 -0.461271 -1.447659 -13.886493 -3.743863 -0.738274 5e-06 0.0 0.0 -0.258965 0.081855 -0.033451 0.179678 0.227249 0.084534 0.24613 -0.073975 -0.155101 -140.530045 -73.270576 161.120087 41.893799 -48.432198 -17.379704 21.216181 0.477274 0.113664 1.948307 0.01188 -9.366076 17.636629 -26.322731 52.41119 -19.466656 -14.395597 29.410381 -0.0 -8.774821 -0.0 15.931624 -18.268408 6.176919 -0.609776 -1.795654 -3.889328 -4.807089 -11.046809 -2.937851 4e-06 -20.976015 0.0 -5.01997 -25.03356 -4.03188 6e-06 -0.0 -0.0 -10.634533 -5.68697 -3.565586 10.573272 -17.922949 -3.113899 2e-06 -13.821205 1e-06 -0.501777 -31.181505 -4.027016 -9.431356 -59.706284 6.101562 -13.982713 -7.150198 -2.875041 13.77273 -8.401491 -3.218241 0.347734 -34.211544 0.771655 -0.963028 -17.73337 2.62102 -0.0 -0.0 -1e-06 -17.346416 -20.095213 -4.201779 21.757557 -1.638374 3.866428 1e-06 -6.338821 -0.0 -1.69759 -22.591743 -6.194007 -0.0 -3e-06 -2e-06 21.170668 -72.897705 179.162689 48.041256 -47.596436 -23.601494 16.072596 0.04689 -0.087181 2.81368 -5.934683 17.816734 22.18211 -20.375893 49.933315 -16.701807 -16.743528 28.476522 -4e-06 -12.6906 -3e-06 16.256693 -17.678202 2.376824 -0.10592 -1.513856 -4.27588 -5.039039 -5.612869 -2.953557 4e-06 -11.02052 -1e-06 -6.111295 -15.895328 -3.840472 -1e-06 1e-06 -1e-06 -10.283369 -5.680287 -4.341836 11.028292 -11.302404 -2.372634 -1.384269 -14.238578 -6.320118 -0.625437 -26.924181 -3.827601 -3.499496 -50.091232 -4.290069 -13.708522 -7.363474 -3.72094 18.141146 -14.052735 -3.242674 6e-06 -18.787262 1e-06 -0.429711 -8.45604 2.555503 2e-06 -0.0 -1e-06 -15.923531 -20.094479 -5.473587 30.419205 -7.190825 1.735928 1e-06 -8.162921 -1e-06 -1.861899 -22.861469 -6.167941 -0.0 -1e-06 -1e-06 176.535355 -26.976557 -1.443485 110.790596 -3.502206 0.212413 -112.892349 25.930649 -11.397358 -47.688305 2.039433 1.152181 -0.999998 -0.0 -1e-06 -3.918209 -21.510918 -7.572419 115.469009 -2.140821 0.886185 -117.550537 20.974115 -9.702041 -50.857048 1.468523 1.355961 -1.000003 -0.0 0.0 
0.0 0.0 0.0 0.0 -0.0 0.0 -2.697765 44.681881 4.738596 88.680626 -13.803016 89.87014 -5.510535 0.945847 -0.401854 -11.827295 -0.423611 0.057273 18.853596 1.648381 -2.861128 15.137911 -1.971065 2.393376 -2.383604 -0.494734 -1.337472 -14.124236 -3.286181 -0.718909 5e-06 0.0 -0.0 -0.263709 0.074841 -0.015856 0.116616 0.2032 0.096031 0.183843 -0.063883 -0.132644 -140.695343 -73.37265 161.121399 41.920231 -47.467056 -16.765205 21.760519 0.444696 0.017275 1.507642 0.637782 -7.752102 17.636627 -26.322721 52.411179 -19.46666 -14.395596 29.410385 -0.0 -8.774821 -1e-06 15.929255 -18.304325 6.236621 -0.609777 -1.795654 -3.889327 -4.807088 -11.046809 -2.93785 4e-06 -20.976015 -0.0 -5.01997 -25.033552 -4.031881 6e-06 -1e-06 0.0 -10.634534 -5.68697 -3.565588 10.573275 -17.922947 -3.113902 2e-06 -13.821206 0.0 -0.501776 -31.181498 -4.027017 -9.471169 -59.781094 6.067651 -13.982713 -7.150197 -2.875042 13.772727 -8.40149 -3.21824 0.347735 -34.211544 0.771652 -0.963026 -17.73337 2.621019 -0.0 1e-06 -0.0 -17.346416 -20.095213 -4.20178 21.757557 -1.638375 3.866428 1e-06 -6.338822 1e-06 -1.697587 -22.591742 -6.194008 0.0 -2e-06 -2e-06 20.79003 -73.277199 179.475769 49.137096 -47.464104 -24.295681 16.750248 -0.04184 -0.100563 3.251738 -5.246491 17.094034 22.182116 -20.375895 49.933319 -16.701817 -16.74353 28.476532 -4e-06 -12.690603 -0.0 16.186935 -17.653416 2.393305 -0.105919 -1.513857 -4.275878 -5.039041 -5.612873 -2.953557 5e-06 -11.020527 -1e-06 -6.1113 -15.895336 -3.840468 0.0 0.0 0.0 -10.283371 -5.680288 -4.341835 11.028297 -11.302409 -2.372635 -1.384268 -14.238585 -6.32012 -0.625436 -26.924192 -3.827601 -3.416332 -50.136681 -4.281042 -13.708527 -7.363476 -3.720936 18.141151 -14.05274 -3.242675 7e-06 -18.78727 -0.0 -0.429709 -8.456043 2.555502 1e-06 1e-06 0.0 -15.923538 -20.094482 -5.47358 30.419218 -7.190828 1.735928 3e-06 -8.162928 -1e-06 -1.8619 -22.861473 -6.167944 -0.0 -1e-06 -2e-06 175.453293 -26.566755 -1.696914 110.926567 -3.632385 0.214297 -112.800224 25.79447 -10.877359 -46.993656 2.047571 1.145294 -1.0 0.0 0.0 -5.097645 -21.805994 -7.374013 115.731598 -2.272629 0.837798 -117.73513 21.005119 -10.046322 -50.892155 1.478501 1.370791 -1.000003 0.0 -0.0 
0.0 0.0 0.0 0.0 -0.0 0.0 -2.604327 44.756405 4.595457 89.131767 -14.96995 89.659637 -5.216734 0.832226 -0.386856 -11.716275 -0.441691 0.133887 18.816856 1.370253 -2.873231 14.704636 -1.961939 2.362089 -2.452914 -0.48987 -1.087591 -14.541563 -2.880223 -0.756898 7e-06 -1e-06 -0.0 -0.265581 0.067377 -0.005309 0.060266 0.189582 0.102064 0.12497 -0.064745 -0.118748 -140.411133 -73.470764 160.59317 42.205204 -46.388924 -16.228973 22.562542 0.461963 -0.06625 0.693166 1.894894 -5.359386 17.636629 -26.322737 52.411201 -19.466667 -14.3956 29.410395 -0.0 -8.774824 -1e-06 15.9337 -18.341442 6.301421 -0.609777 -1.795654 -3.88933 -4.80709 -11.046813 -2.937849 5e-06 -20.976021 -3e-06 -5.01997 -25.03356 -4.031883 5e-06 1e-06 -1e-06 -10.634536 -5.686973 -3.565588 10.573277 -17.922958 -3.113904 2e-06 -13.821211 0.0 -0.501774 -31.181511 -4.02702 -9.579311 -59.795105 6.104781 -13.982717 -7.1502 -2.875043 13.772733 -8.401493 -3.218245 0.347734 -34.211559 0.771652 -0.963026 -17.733379 2.621018 1e-06 -1e-06 -1e-06 -17.346422 -20.095224 -4.201782 21.757566 -1.638374 3.866426 1e-06 -6.338826 0.0 -1.69759 -22.591755 -6.194008 -0.0 -1e-06 -2e-06 20.381313 -73.818649 179.69519 50.205608 -47.230186 -24.886528 17.961098 -0.167384 -0.121007 3.713921 -4.512246 16.53599 22.182112 -20.375895 49.933327 -16.701818 -16.743532 28.476536 -4e-06 -12.690603 1e-06 16.182184 -17.630375 2.367024 -0.105919 -1.513856 -4.27588 -5.039041 -5.612871 -2.95356 5e-06 -11.020526 -2e-06 -6.111297 -15.895334 -3.840472 0.0 0.0 1e-06 -10.283371 -5.680288 -4.341839 11.028296 -11.302406 -2.372636 -1.384267 -14.238585 -6.320122 -0.625437 -26.924194 -3.827603 -3.319891 -50.104118 -4.273837 -13.708525 -7.363476 -3.720937 18.141153 -14.052739 -3.242677 7e-06 -18.78727 -1e-06 -0.429711 -8.456045 2.555502 0.0 1e-06 -1e-06 -15.923539 -20.094486 -5.473587 30.419224 -7.190829 1.735927 2e-06 -8.162928 -1e-06 -1.861902 -22.861475 -6.167945 -1e-06 -2e-06 -0.0 173.888596 -26.000011 -1.885293 111.329483 -3.710608 0.20558 -112.739601 25.637482 -10.130042 -46.818985 2.059659 1.139362 -0.999999 -0.0 -0.0 -6.818981 -22.372988 -7.044651 116.223473 -2.39577 0.79185 -117.830559 21.086254 -10.244559 -50.538338 1.499779 1.408135 -1.000002 0.0 0.0 
